<?xml version="1.0" encoding="UTF-8" standalone="no"?>
<svg
   xmlns:dc="http://purl.org/dc/elements/1.1/"
   xmlns:cc="http://creativecommons.org/ns#"
   xmlns:rdf="http://www.w3.org/1999/02/22-rdf-syntax-ns#"
   xmlns:svg="http://www.w3.org/2000/svg"
   xmlns="http://www.w3.org/2000/svg"
   xmlns:xlink="http://www.w3.org/1999/xlink"
   xmlns:sodipodi="http://sodipodi.sourceforge.net/DTD/sodipodi-0.dtd"
   xmlns:inkscape="http://www.inkscape.org/namespaces/inkscape"
   width="25"
   height="25"
   viewBox="0 0 25 25"
   version="1.1"
   id="svg928"
   sodipodi:docname="r6_style_icon-address.svg"
   inkscape:version="1.0.2 (e86c870879, 2021-01-15, custom)">
  <metadata
     id="metadata932">
    <rdf:RDF>
      <cc:Work
         rdf:about="">
        <dc:format>image/svg+xml</dc:format>
        <dc:type
           rdf:resource="http://purl.org/dc/dcmitype/StillImage" />
        <dc:title>noun_376938_cc</dc:title>
      </cc:Work>
    </rdf:RDF>
  </metadata>
  <sodipodi:namedview
     pagecolor="#ffffff"
     bordercolor="#666666"
     borderopacity="1"
     objecttolerance="10"
     gridtolerance="10"
     guidetolerance="10"
     inkscape:pageopacity="0"
     inkscape:pageshadow="2"
     inkscape:window-width="1920"
     inkscape:window-height="1057"
     id="namedview930"
     showgrid="false"
     inkscape:zoom="35.6"
     inkscape:cx="7.0926966"
     inkscape:cy="12.5"
     inkscape:window-x="1912"
     inkscape:window-y="-8"
     inkscape:window-maximized="1"
     inkscape:current-layer="svg928" />
  <title
     id="title911">noun_376938_cc</title>
  <desc
     id="desc913">Created using Figma</desc>
  <g
     id="Canvas"
     transform="translate(-4909 -2758)">
    <g
       id="noun_376938_cc">
      <g
         id="g921">
        <g
           id="g919">
          <g
             id="Group">
            <g
               id="Vector">
              <use
                 xlink:href="#path0_fill"
                 transform="translate(4909 2758)"
                 fill="#219653"
                 id="use915" />
            </g>
          </g>
        </g>
      </g>
    </g>
  </g>
  <defs
     id="defs926">
    <path
       id="path0_fill"
       d="M 12.5 8.88178e-16C 9.18479 1.77636e-15 6.00537 1.31696 3.66117 3.66117C 1.31696 6.00537 2.66454e-15 9.18479 0 12.5C 3.55271e-15 15.8152 1.31696 18.9946 3.66117 21.3388C 6.00537 23.683 9.18479 25 12.5 25C 15.8152 25 18.9946 23.683 21.3388 21.3388C 23.683 18.9946 25 15.8152 25 12.5C 25 9.18479 23.683 6.00537 21.3388 3.66117C 18.9946 1.31696 15.8152 1.44329e-15 12.5 0L 12.5 8.88178e-16ZM 12.5 6C 15.2555 6 17.5 8.2445 17.5 11C 17.5 14.8348 13.8533 18.3537 12.8535 19.3535L 12.5 19.707L 12.1465 19.3535C 11.1454 18.3524 7.5 14.8248 7.5 11C 7.5 8.2445 9.7445 6 12.5 6ZM 12.5 7C 10.2849 7 8.5 8.7849 8.5 11C 8.5 13.9376 11.292 16.99 12.5 18.2285C 13.709 16.9904 16.5 13.9488 16.5 11C 16.5 8.7849 14.7151 7 12.5 7ZM 12.5 9C 13.5986 9 14.5 9.9013 14.5 11C 14.5 12.0986 13.5986 13 12.5 13C 11.4014 13 10.5 12.0986 10.5 11C 10.5 9.9013 11.4014 9 12.5 9ZM 12.5 10C 11.9418 10 11.5 10.4418 11.5 11C 11.5 11.5582 11.9418 12 12.5 12C 13.0582 12 13.5 11.5582 13.5 11C 13.5 10.4418 13.0582 10 12.5 10Z" />
  </defs>
  <path
     style="fill:#0000ff;stroke:#0000ff;stroke-width:0.0280899"
     d="M 11.952247,24.969053 C 11.121219,24.93441 10.372026,24.8264 9.5365169,24.620781 8.8917607,24.462107 8.5002562,24.33819 7.9213483,24.109556 4.7060697,22.839715 2.1595109,20.293228 0.89024711,17.078652 -0.05937771,14.673603 -0.23838323,12.008097 0.38185882,9.508427 1.1404142,6.4513331 3.0235317,3.7912396 5.6484531,2.0688314 8.5726542,0.15004303 12.149125,-0.45454851 15.547753,0.39538478 c 2.98462,0.74639762 5.613102,2.60374922 7.331268,5.18045792 1.483982,2.2255048 2.186258,4.7316643 2.087879,7.4508423 -0.03032,0.838058 -0.136312,1.584275 -0.346119,2.436798 -0.158674,0.644756 -0.282591,1.036261 -0.511225,1.615169 -1.272323,3.221563 -3.810554,5.757404 -7.041528,7.034896 -1.242663,0.491336 -2.670868,0.801342 -3.893871,0.845204 -0.224017,0.008 -0.476826,0.01838 -0.561797,0.02299 -0.08497,0.0046 -0.382023,-0.0011 -0.660113,-0.01269 z m 1.225539,-5.918506 c 0.988165,-1.006332 1.675597,-1.805935 2.277282,-2.648872 1.143672,-1.602239 1.812899,-3.139194 2.00466,-4.603922 0.06418,-0.490217 0.04262,-1.384703 -0.04299,-1.783708 C 17.033818,8.2293851 15.787445,6.8169421 14.096231,6.251109 12.866889,5.8398051 11.538596,5.916809 10.362406,6.4675666 9.1389565,7.0404542 8.1817014,8.1163096 7.7551295,9.3978761 7.5682975,9.9591823 7.524898,10.218527 7.5086492,10.870787 c -0.021638,0.868589 0.07419,1.483275 0.3700368,2.373595 0.5082702,1.529586 1.4330188,3.023183 2.920262,4.716624 0.393752,0.448345 1.66097,1.758095 1.701003,1.758095 0.01174,0 0.316769,-0.300849 0.677835,-0.668554 z"
     id="path934" />
  <path
     style="fill:#0000ff;stroke:#0000ff;stroke-width:0.0280899"
     d="M 12.102026,17.785891 C 10.079599,15.614038 8.9153829,13.647611 8.5900307,11.853933 8.5108681,11.417506 8.5044111,10.660481 8.5767335,10.294944 8.6882873,9.7311198 8.8725315,9.2710205 9.1632729,8.8302222 9.7987718,7.8667312 10.773648,7.2362976 11.896067,7.0629769 c 0.399116,-0.06163 1.091357,-0.042482 1.44663,0.040016 1.601141,0.3718015 2.779675,1.5934265 3.07936,3.1919511 0.06872,0.366543 0.0688,1.085994 1.69e-4,1.487557 -0.290149,1.697836 -1.337515,3.564771 -3.120833,5.562917 -0.248624,0.278574 -0.77924,0.839902 -0.801393,0.847777 -0.0077,0.0027 -0.186813,-0.180541 -0.397974,-0.407304 z m 0.886085,-4.835567 c 0.648268,-0.165799 1.21066,-0.686591 1.420669,-1.315584 0.179632,-0.538006 0.114,-1.169844 -0.172241,-1.6581838 C 14.095537,9.7360008 13.704579,9.3590498 13.469101,9.2366122 13.122731,9.0565161 12.900118,9.002809 12.5,9.002809 c -0.400118,0 -0.622731,0.053707 -0.969101,0.2338032 -0.235478,0.1224376 -0.626436,0.4993886 -0.767438,0.739944 -0.449457,0.7667908 -0.338981,1.7419808 0.270541,2.3881058 0.287207,0.304455 0.585247,0.484312 0.969413,0.585009 0.278186,0.07292 0.701048,0.0732 0.984696,6.53e-4 z"
     id="path936" />
  <path
     style="fill:#0000ff;stroke:#22498e;stroke-width:0.0280899;stroke-opacity:1"
     d="m 12.247191,11.951517 c -0.204596,-0.05628 -0.437297,-0.219948 -0.55286,-0.388841 -0.33869,-0.494992 -0.168084,-1.161343 0.370276,-1.446221 0.126107,-0.06673 0.170568,-0.07432 0.435393,-0.07432 0.264825,0 0.309286,0.0076 0.435393,0.07432 0.53547,0.283349 0.706656,0.939373 0.375561,1.439236 -0.221662,0.334649 -0.674129,0.503012 -1.063763,0.395826 z"
     id="path938" />
  <path
     style="fill:#0000ff;stroke:#22498e;stroke-width:0.0280899;stroke-opacity:1"
     d="m 11.719295,24.954313 c -0.0054,-0.0054 -0.09975,-0.01581 -0.209594,-0.02305 C 10.350689,24.854779 8.8388031,24.482518 7.6544944,23.982018 4.1173559,22.48719 1.4471917,19.417387 0.4526168,15.702247 0.32970385,15.243117 0.17398107,14.46828 0.13929958,14.143258 c -0.006594,-0.0618 -0.0252132,-0.233288 -0.04137564,-0.38109 -0.04889457,-0.447129 -0.05571907,-0.60344 -0.05571907,-1.276213 0,-0.61827 0.0048957,-0.754624 0.041855,-1.16573 0.02754681,-0.30641 0.03540233,-0.366771 0.0950476,-0.730337 C 0.48433888,8.7293565 1.1261879,7.0929065 2.1537762,5.555298 3.8580719,3.0051135 6.4886208,1.1570215 9.4775093,0.41000972 9.920816,0.29921424 10.654631,0.15663813 10.955056,0.12293062 c 0.110495,-0.0123975 0.16961,-0.0184712 0.561798,-0.05772195 0.250967,-0.02511709 1.707085,-0.02472997 1.966292,5.2275e-4 0.658104,0.06411436 0.716123,0.07157552 1.122478,0.14434931 1.201927,0.21525228 2.224811,0.54255691 3.287634,1.05198497 3.447863,1.6526144 6.011256,4.9058975 6.796685,8.6258849 0.275049,1.3027004 0.34414,2.7162414 0.199068,4.0727234 -0.04851,0.453584 -0.209231,1.241454 -0.383922,1.882023 -0.46441,1.70293 -1.358966,3.381816 -2.536915,4.761236 -0.297314,0.348166 -0.924946,0.979721 -1.282107,1.290121 -1.976253,1.717519 -4.411962,2.76456 -7.034382,3.023878 -0.30427,0.03009 -1.908481,0.06029 -1.93239,0.03638 z m 1.443913,-5.874497 c 1.530874,-1.556085 2.49752,-2.796635 3.233745,-4.150041 0.58551,-1.076347 1.001469,-2.314346 1.082194,-3.220882 0.02727,-0.30627 0.02662,-0.97683 -0.0013,-1.324916 C 17.42086,9.6730379 17.078205,8.7869764 16.588233,8.0835154 16.315189,7.6915014 15.722229,7.1119596 15.323034,6.8469461 14.653891,6.4027222 13.86883,6.1067312 13.125627,6.0184587 12.904571,5.9922034 12.106458,5.9921362 11.882022,6.0183463 11.503793,6.0625303 11.06337,6.1707447 10.715918,6.3048643 9.1948829,6.8919986 8.0735104,8.1408919 7.6406228,9.7298781 7.601236,9.8744539 7.5622868,10.048096 7.5540688,10.11575 c -0.091338,0.751947 -0.070063,1.560526 0.057605,2.18927 0.3694022,1.81925 1.4427272,3.71593 3.2497892,5.742725 0.457344,0.512956 1.592345,1.671348 1.637599,1.671348 0.01937,0 0.318236,-0.287678 0.664146,-0.639285 z"
     id="path1501" />
  <path
     style="fill:#0000ff;stroke:#22498e;stroke-width:0.0280899;stroke-opacity:1"
     d="M 12.27484,17.945761 C 10.285817,15.869047 9.004953,13.779404 8.6355004,12.008427 8.560031,11.646663 8.5560063,11.597904 8.5529851,11.008766 8.5501311,10.452237 8.5978308,10.140728 8.7534255,9.6997638 9.1590843,8.5501049 10.091487,7.6244176 11.227028,7.2439762 c 0.43259,-0.1449308 0.766966,-0.1964065 1.258927,-0.1938059 0.515448,0.00272 0.598066,0.00936 0.856742,0.068842 1.176582,0.2705355 2.169065,1.0451371 2.704862,2.1110597 0.151185,0.300769 0.274631,0.659693 0.344049,1.000331 0.07404,0.363303 0.08051,1.166451 0.01252,1.553305 -0.235405,1.339446 -0.921238,2.759113 -2.062649,4.269663 -0.485195,0.64211 -0.977569,1.218983 -1.591219,1.8643 L 12.5,18.180849 Z m 0.674598,-4.972562 c 0.07725,-0.01551 0.26727,-0.08929 0.422273,-0.163955 0.546624,-0.263291 0.944011,-0.744586 1.090822,-1.321148 0.06264,-0.245987 0.05805,-0.730494 -0.0094,-0.996523 C 14.358584,10.118912 14.228875,9.8913919 13.951664,9.6120018 13.672119,9.3302587 13.464527,9.1941395 13.145798,9.0835928 12.939262,9.0119586 12.887721,9.0057456 12.5,9.0057456 c -0.382731,0 -0.440905,0.00679 -0.634729,0.074132 -0.320984,0.1115145 -0.544252,0.2569119 -0.817121,0.5321297 -0.277242,0.279629 -0.433173,0.5537977 -0.516218,0.9076557 -0.06502,0.277077 -0.05946,0.701863 0.01281,0.977155 0.186078,0.708835 0.77882,1.303143 1.461335,1.465195 0.186648,0.04432 0.74542,0.05094 0.94336,0.01119 z"
     id="path1503" />
  <path
     style="fill:#22498e;stroke:#22498e;stroke-width:0.0280899;stroke-opacity:1;fill-opacity:1"
     d="m 12.309957,11.936902 c -0.264871,-0.06534 -0.538268,-0.279611 -0.659963,-0.517235 -0.104068,-0.203208 -0.119715,-0.529341 -0.03604,-0.751174 0.07491,-0.198589 0.258391,-0.406646 0.451119,-0.511542 0.133878,-0.07287 0.171195,-0.0797 0.434926,-0.0797 0.263731,0 0.301048,0.0068 0.434926,0.0797 0.192728,0.104896 0.376209,0.312953 0.451119,0.511542 0.04891,0.129663 0.05813,0.202947 0.04844,0.384878 -0.01383,0.259625 -0.09571,0.451488 -0.264858,0.620636 -0.203603,0.203603 -0.60385,0.326002 -0.859669,0.262895 z"
     id="path1505" />
  <path
     style="fill:#22498e;fill-opacity:1;stroke:#22498e;stroke-width:0.0280899;stroke-opacity:1"
     d="M 12.116088,17.729972 C 10.125835,15.584505 8.9265094,13.546164 8.6268893,11.799825 8.5692565,11.463912 8.5667586,10.703656 8.6220821,10.336666 8.7142109,9.725526 9.0243192,9.0494848 9.4537866,8.5235358 10.07213,7.7662796 10.947001,7.2590262 11.879961,7.1168316 c 0.411452,-0.06271 1.211609,-0.039341 1.516028,0.044276 0.379974,0.1043709 0.553865,0.1715255 0.889316,0.3434424 0.925292,0.4742074 1.638467,1.3052705 1.948623,2.2707304 0.158294,0.4927416 0.1698,0.5781956 0.170199,1.2640456 3.2e-4,0.552237 -0.0077,0.669255 -0.06331,0.926966 -0.27838,1.289482 -0.919707,2.586607 -1.976398,3.997394 -0.534632,0.713785 -0.908038,1.155384 -1.624172,1.920781 l -0.241452,0.258061 z m 1.067862,-4.808676 c 0.59834,-0.230745 1.054216,-0.693886 1.258252,-1.278307 0.0713,-0.204228 0.07837,-0.25988 0.07848,-0.617708 C 14.520879,10.363278 14.38685,10.020012 13.960674,9.5910344 13.673859,9.3023332 13.465603,9.16536 13.15489,9.0610571 12.960646,8.9958517 12.897144,8.988764 12.507168,8.988764 c -0.315916,0 -0.473456,0.012199 -0.584935,0.045293 -0.616196,0.1829284 -1.191541,0.7427718 -1.382404,1.345156 -0.05244,0.165497 -0.0623,0.26112 -0.0623,0.603933 0,0.351456 0.0089,0.433992 0.0652,0.601946 0.208725,0.623106 0.657036,1.106027 1.24098,1.336786 0.207783,0.08211 0.454375,0.110539 0.846631,0.0976 0.283247,-0.0093 0.357273,-0.02247 0.553611,-0.09819 z"
     id="path1507" />
  <path
     style="fill:#22498e;fill-opacity:1;stroke:#22498e;stroke-width:0.0280899;stroke-opacity:1"
     d="M 11.530899,24.911913 C 10.414061,24.797835 9.4474972,24.588835 8.4269663,24.240752 6.243018,23.495849 4.2585781,22.088773 2.7769955,20.234614 1.2686303,18.346938 0.33705862,16.035642 0.11312276,13.625354 0.04091514,12.848163 0.0605424,11.622715 0.15634122,10.926966 0.61589461,7.5894121 2.3257389,4.6317452 4.9578652,2.6213517 6.7506452,1.252043 8.9385534,0.37683612 11.19382,0.12684532 c 0.590468,-0.06545185 2.095278,-0.05834299 2.718036,0.0128402 2.309821,0.26401977 4.550511,1.20442058 6.369043,2.67304008 2.354715,1.9016325 3.975311,4.6334297 4.464501,7.5256954 0.143194,0.846618 0.168479,1.182294 0.16811,2.231804 -3.88e-4,1.100355 -0.02515,1.382891 -0.195722,2.233146 -0.416393,2.075619 -1.225866,3.837355 -2.510557,5.463975 -0.413089,0.523036 -1.394907,1.504946 -1.926332,1.926513 -1.808871,1.434935 -3.854417,2.311884 -6.151686,2.637299 -0.634814,0.08992 -2.071432,0.134573 -2.598314,0.08075 z m 1.632254,-5.803767 c 1.410126,-1.425014 2.250953,-2.465171 3.002987,-3.714888 0.547206,-0.909334 1.016997,-2.04911 1.218856,-2.957105 0.118791,-0.534338 0.136103,-0.755572 0.121049,-1.546934 -0.01161,-0.610432 -0.0238,-0.776362 -0.07206,-0.9808541 C 17.294323,9.3166107 17.016241,8.6797834 16.674021,8.1680031 16.45697,7.8434107 16.030792,7.3782579 15.692029,7.0962051 15.080866,6.5873551 14.296312,6.2178497 13.47074,6.0500337 13.13385,5.9815528 13.085749,5.9788972 12.401685,5.9910118 11.758624,6.0024 11.65524,6.0109494 11.390449,6.074636 10.332868,6.3290031 9.4172202,6.8696944 8.7268955,7.6474683 8.1742435,8.2701292 7.7207708,9.1653469 7.5574219,9.9561699 7.4556685,10.448789 7.455014,11.566885 7.5561382,12.148876 c 0.3140199,1.80725 1.3878261,3.75967 3.2056848,5.828652 0.395852,0.450536 1.690346,1.769663 1.736617,1.769663 0.01779,0 0.316911,-0.28757 0.664713,-0.639045 z"
     id="path1509" />
</svg>
